#!OML:ASF Y:\EmotionMaleHayes\Project 1\Capture day 1\Session 1\Male1.ASF
:FULLY-SPECIFIED
:DEGREES
636
root 48.9339 17.1491 -1.08757 935.694 95.1271 937.034
lowerback 2.88104 2.68933 -7.31713
upperback 1.17047 3.41307 -1.24153
thorax -0.753037 1.71559 2.68084
lowerneck -22.842 1.52977 2.739
upperneck 21.7122 1.75747 -1.85364
head 10.8204 0.830341 -0.840426
rclavicle -2.33324e-014 1.59028e-014
rhumerus -33.8675 2.46768 -86.779
rradius 38.1322
rwrist -5.34189
rhand -13.0589 -29.401
rfingers 7.12502
rthumb 13.0364 -58.9736
lclavicle -2.33324e-014 1.59028e-014
lhumerus -35.1059 -3.89792 86.7385
lradius 20.4701
lwrist -18.8753
lhand -12.8368 -26.2086
lfingers 7.12502
lthumb 13.2505 3.35027
rfemur 9.19117 -0.958053 10.5335
rtibia 6.74108
rfoot -17.3983 -2.54378
rtoes 14.1048
lfemur 12.9996 0.0860235 -21.1492
ltibia -2.43836
lfoot -10.2355 13.8059
ltoes -1.71457
637
root 48.9327 17.1484 -1.08593 941.647 95.3618 942.986
lowerback 2.84252 2.66272 -7.80856
upperback 1.18975 3.37323 -1.40205
thorax -0.724348 1.69602 2.79161
lowerneck -22.9646 1.53403 2.73172
upperneck 21.8055 1.75883 -1.83285
head 10.8774 0.832659 -0.831247
rclavicle 3.34704e-014 -4.49253e-014
rhumerus -33.7954 2.78609 -86.896
rradius 37.9512
rwrist -5.6183
rhand -13.0728 -29.535
rfingers 7.12502
rthumb 13.023 -59.1085
lclavicle 3.34704e-014 -4.49253e-014
lhumerus -34.8713 -3.88698 86.657
lradius 20.5359
lwrist -18.897
lhand -12.9061 -26.1415
lfingers 7.12502
lthumb 13.1837 3.42171
rfemur 9.21586 -1.45785 9.66811
rtibia 6.8072
rfoot -17.3503 -2.10462
rtoes 14.3755
lfemur 12.9435 0.173445 -21.873
ltibia -2.31263
lfoot -10.3998 13.4997
ltoes -0.441009
638
root 48.9393 17.1472 -1.09044 945.72 95.4542 947.078
lowerback 2.84147 2.61648 -7.96424
upperback 1.13684 3.30643 -1.52074
thorax -0.772688 1.66666 2.75698
lowerneck -22.8289 1.49406 2.62199
upperneck 21.8126 1.73134 -1.76992
head 10.8524 0.82061 -0.794958
rclavicle 1.11568e-014 -1.94809e-014
rhumerus -33.9764 2.9456 -86.9735
rradius 37.7987
rwrist -5.60211
rhand -12.9372 -29.5932
rfingers 7.12502
rthumb 13.1538 -59.1583
lclavicle 1.11568e-014 -1.94809e-014
lhumerus -34.8651 -3.8787 86.6228
lradius 20.6252
lwrist -18.734
lhand -13.2061 -26.1714
lfingers 7.12502
lthumb 12.8945 3.41026
rfemur 9.34605 -2.30871 8.94997
rtibia 6.7407
rfoot -16.9935 -1.60911
rtoes 12.5675
lfemur 13.0392 0.19718 -22.4044
ltibia -2.42337
lfoot -10.3787 13.3539
ltoes -0.231684
639
root 48.9244 17.1506 -1.08343 943.12 95.0539 944.38
lowerback 3.08501 2.58769 -7.475
upperback 0.940512 3.24204 -1.39837
thorax -1.08747 1.64695 2.59832
lowerneck -22.6249 1.48337 2.57219
upperneck 21.8071 1.73776 -1.75142
head 10.812 0.824023 -0.779511
rclavicle -2.7072e-014 6.75868e-015
rhumerus -34.271 2.95223 -87.0371
rradius 37.6534
rwrist -5.32915
rhand -12.7033 -29.7515
rfingers 7.12502
rthumb 13.3791 -59.3019
lclavicle -2.7072e-014 6.75868e-015
lhumerus -34.9351 -3.9027 86.607
lradius 20.6706
lwrist -18.7408
lhand -13.8752 -26.4957
lfingers 7.12502
lthumb 12.2495 3.12557
rfemur 9.23805 -2.3672 9.56965
rtibia 6.66414
rfoot -16.841 -1.84176
rtoes 11.4947
lfemur 12.8841 0.00380713 -21.8367
ltibia -2.42421
lfoot -10.3582 13.4524
ltoes -0.562219
640
root 48.9214 17.1514 -1.07167 946.971 95.2462 948.221
lowerback 3.23827 2.57599 -7.93312
upperback 0.792596 3.18962 -1.48244
thorax -1.3407 1.63459 2.75594
lowerneck -22.2927 1.55121 2.90371
upperneck 21.6969 1.8114 -2.06637
head 10.7182 0.848334 -0.937477
rclavicle 2.23633e-015 -5.96354e-015
rhumerus -34.5777 2.90252 -87.0926
rradius 37.5614
rwrist -5.12358
rhand -12.5063 -30.0077
rfingers 7.12502
rthumb 13.5691 -59.5455
lclavicle 2.23633e-015 -5.96354e-015
lhumerus -34.9543 -3.75507 86.4634
lradius 20.624
lwrist -19.3369
lhand -14.4981 -26.8643
lfingers 7.12502
lthumb 11.6488 2.79186
rfemur 9.34959 -2.48458 9.09776
rtibia 6.49947
rfoot -16.8709 -1.71723
rtoes 12.6766
lfemur 12.813 -0.0262508 -22.2468
ltibia -2.42772
lfoot -10.2811 13.4026
ltoes -0.802352
641
root 48.9082 17.1551 -1.05813 942.656 94.8031 943.813
lowerback 3.03554 2.5933 -7.32435
upperback 0.923932 3.25651 -1.34121
thorax -1.07376 1.65315 2.575
lowerneck -21.9365 1.67804 3.69146
upperneck 21.134 1.92318 -2.87335
head 10.4667 0.861844 -1.34006
rclavicle 2.91965e-015 2.34566e-014
rhumerus -34.3123 2.77036 -87.1087
rradius 37.3465
rwrist -5.05599
rhand -12.5541 -29.9977
rfingers 7.12502
rthumb 13.523 -59.5386
lclavicle 2.91965e-015 2.34566e-014
lhumerus -34.3225 -3.66786 86.314
lradius 20.6251
lwrist -19.1875
lhand -14.141 -26.7585
lfingers 7.12502
lthumb 11.9932 2.87792
rfemur 9.24257 -2.21727 10.0049
rtibia 6.41418
rfoot -16.9636 -2.12892
rtoes 12.0055
lfemur 12.6813 -0.144115 -21.4349
ltibia -2.41174
lfoot -10.3091 13.3749
ltoes -0.360259
642
root 48.905 17.1535 -1.04129 941.334 94.8242 942.601
lowerback 3.25501 2.65214 -7.40023
upperback 0.852401 3.30747 -1.28643
thorax -1.28334 1.6865 2.6577
lowerneck -21.8367 1.68027 3.73111
upperneck 21.16 1.93527 -2.93382
head 10.4593 0.864873 -1.36673
rclavicle 1.98039e-014 -1.59028e-015
rhumerus -34.4914 2.70587 -87.1494
rradius 37.2186
rwrist -4.62078
rhand -12.2107 -30.3623
rfingers 7.12502
rthumb 13.8539 -59.8809
lclavicle 1.98039e-014 -1.59028e-015
lhumerus -34.1518 -3.64124 86.2522
lradius 20.8516
lwrist -18.0695
lhand -12.9219 -26.2682
lfingers 7.12502
lthumb 13.1684 3.2959
rfemur 9.37986 -1.72575 10.2934
rtibia 6.21479
rfoot -16.8444 -2.75874
rtoes 9.62819
lfemur 12.8432 -0.238166 -21.2381
ltibia -2.50958
lfoot -10.3564 13.4858
ltoes -0.210952
643
root 48.9111 17.1533 -1.03688 944.512 94.895 945.78
lowerback 3.15156 2.61865 -7.6012
upperback 0.863048 3.26815 -1.36963
thorax -1.21622 1.66591 2.69067
lowerneck -22.3312 1.59714 2.94455
upperneck 21.7132 1.83586 -1.97351
head 10.7315 0.87457 -0.906739
rclavicle 3.15571e-015 1.27222e-014
rhumerus -34.5674 2.31898 -87.0574
rradius 37.3864
rwrist -3.33519
rhand -10.4778 -32.0421
rfingers 7.12502
rthumb 15.5235 -61.439
lclavicle 3.15571e-015 1.27222e-014
lhumerus -33.93 -3.6431 86.1641
lradius 21.0473
lwrist -17.5036
lhand -12.418 -26.124
lfingers 7.12502
lthumb 13.6542 3.40818
rfemur 9.48875 -2.14702 9.86897
rtibia 6.11544
rfoot -16.6753 -2.47048
rtoes 9.821
lfemur 12.8774 -0.209492 -21.5631
ltibia -2.55514
lfoot -10.3299 13.3361
ltoes -0.217586
644
root 48.89 17.1553 -1.03376 949.724 95.0602 950.947
lowerback 3.25794 2.57498 -7.98503
upperback 0.877651 3.19089 -1.49182
thorax -1.26566 1.63132 2.77652
lowerneck -22.5025 1.54928 2.64015
upperneck 21.7654 1.78525 -1.65802
head 10.7748 0.864522 -0.749723
rclavicle 6.41081e-015 -8.34896e-015
rhumerus -34.5759 2.25805 -87.1293
rradius 37.0502
rwrist -3.94398
rhand -11.4493 -30.8651
rfingers 7.12502
rthumb 14.5876 -60.3321
lclavicle 6.41081e-015 -8.34896e-015
lhumerus -33.6044 -3.54799 86.0952
lradius 21.193
lwrist -17.3728
lhand -12.569 -26.1849
lfingers 7.12502
lthumb 13.5086 3.35696
rfemur 9.33799 -2.4141 9.29913
rtibia 6.31691
rfoot -16.767 -2.26775
rtoes 11.5572
lfemur 12.5881 -0.272415 -22.1032
ltibia -2.31551
lfoot -10.2321 13.2141
ltoes -0.293705
645
root 48.8651 17.154 -0.99765 942.51 94.7245 943.882
lowerback 3.55127 2.6668 -7.71345
upperback 0.957822 3.29586 -1.21385
thorax -1.36006 1.68221 2.89527
lowerneck -22.5862 1.5514 2.63434
upperneck 21.6447 1.79739 -1.71701
head 10.7467 0.859648 -0.767923
rclavicle 2.08972e-014 -1.03368e-014
rhumerus -34.3872 2.31134 -87.1804
rradius 36.5645
rwrist -3.75398
rhand -11.5803 -30.4242
rfingers 7.12502
rthumb 14.4614 -59.9003
lclavicle 2.08972e-014 -1.03368e-014
lhumerus -33.221 -3.49488 86.0803
lradius 21.3829
lwrist -16.8876
lhand -12.5716 -26.0463
lfingers 7.12502
lthumb 13.5061 3.49577
rfemur 9.32494 -0.615085 10.8619
rtibia 6.26865
rfoot -17.2285 -3.81334
rtoes 12.3302
lfemur 12.6492 -0.582186 -21.0005
ltibia -2.29852
lfoot -10.1477 13.6568
ltoes 0.0352041
646
root 48.8427 17.1424 -0.975263 956.91 96.0303 958.606
lowerback 4.00245 2.67953 -9.86564
upperback 1.06761 3.20153 -1.63494
thorax -1.5754 1.65468 3.63586
lowerneck -22.599 1.53703 2.54673
upperneck 21.52 1.80555 -1.72856
head 10.7025 0.852998 -0.756258
rclavicle 1.90585e-014 -7.95139e-015
rhumerus -34.0599 2.18994 -87.1102
rradius 35.8433
rwrist -3.05668
rhand -11.1864 -30.2313
rfingers 7.12502
rthumb 14.8409 -59.6798
lclavicle 1.90585e-014 -7.95139e-015
lhumerus -32.9084 -3.50766 86.1024
lradius 21.5971
lwrist -16.5276
lhand -12.579 -25.9762
lfingers 7.12502
lthumb 13.499 3.56627
rfemur 9.59378 -0.114184 8.77501
rtibia 6.15661
rfoot -17.3088 -4.48412
rtoes 11.7749
lfemur 12.5338 -0.395028 -23.0293
ltibia -1.95141
lfoot -9.96971 13.4377
ltoes -0.0954387
647
root 48.8327 17.1373 -0.951702 958.066 96.1441 959.916
lowerback 4.19175 2.71824 -10.2387
upperback 1.10833 3.21874 -1.60656
thorax -1.66217 1.66788 3.86192
lowerneck -22.2959 1.54678 2.67129
upperneck 21.2159 1.83875 -1.96441
head 10.5397 0.849123 -0.85729
rclavicle 3.885e-014 1.31198e-014
rhumerus -34.3055 1.87065 -86.9641
rradius 36.1073
rwrist -2.43293
rhand -10.6593 -30.5071
rfingers 7.12502
rthumb 15.3487 -59.9175
lclavicle 3.885e-014 1.31198e-014
lhumerus -32.75 -3.47149 86.1246
lradius 21.8368
lwrist -16.4277
lhand -12.6177 -26.0985
lfingers 7.12502
lthumb 13.4617 3.44649
rfemur 9.74398 0.552916 8.88735
rtibia 6.01437
rfoot -17.4096 -5.27383
rtoes 11.3906
lfemur 12.5454 -0.316943 -23.011
ltibia -1.83209
lfoot -9.99127 13.291
ltoes -0.276091
648
root 48.8192 17.139 -0.944588 959.727 96.2953 961.509
lowerback 4.21743 2.70469 -10.4954
upperback 1.06757 3.18438 -1.63962
thorax -1.72557 1.65657 3.96911
lowerneck -21.6712 1.69797 3.58524
upperneck 20.5975 1.99737 -2.95478
head 10.2261 0.875152 -1.33808
rclavicle 2.3233e-015 -1.74931e-014
rhumerus -34.6425 1.22345 -86.7675
rradius 36.5395
rwrist -1.69521
rhand -10.085 -31.0871
rfingers 7.12502
rthumb 15.9018 -60.4542
lclavicle 2.3233e-015 -1.74931e-014
lhumerus -32.6369 -3.53051 86.1641
lradius 22.1038
lwrist -16.0827
lhand -12.7062 -26.2737
lfingers 7.12502
lthumb 13.3764 3.27691
rfemur 9.57579 0.598412 8.67433
rtibia 6.16276
rfoot -17.6215 -5.25336
rtoes 12.8859
lfemur 12.3023 -0.20124 -23.18
ltibia -1.64068
lfoot -9.99159 13.1237
ltoes -0.850922
